<svg width="25" height="25" viewBox="0 0 25 25" fill="none" xmlns="http://www.w3.org/2000/svg">
<path d="M4.41701 12.5C4.41678 11.0518 4.79782 9.62893 5.52181 8.37459C6.24581 7.12026 7.28725 6.07861 8.54145 5.35437C9.79564 4.63013 11.2184 4.24881 12.6667 4.24875C14.115 4.2487 15.5378 4.6299 16.792 5.35405C16.9642 5.45193 17.1681 5.47775 17.3592 5.42586C17.5503 5.37397 17.7132 5.24858 17.8122 5.07707C17.9112 4.90555 17.9384 4.70183 17.8878 4.51036C17.8372 4.31888 17.7129 4.15521 17.542 4.05505C15.6833 2.98192 13.5224 2.55208 11.3945 2.83219C9.26663 3.11229 7.29062 4.0867 5.77294 5.60428C4.25526 7.12186 3.28072 9.09782 3.00048 11.2257C2.72023 13.3536 3.14994 15.5145 4.22295 17.3733C5.29595 19.232 6.9523 20.6848 8.93512 21.5063C10.9179 22.3278 13.1164 22.4721 15.1896 21.9168C17.2628 21.3615 19.0948 20.1377 20.4015 18.4351C21.7083 16.7325 22.4167 14.6463 22.417 12.5C22.417 12.3011 22.338 12.1104 22.1973 11.9697C22.0567 11.8291 21.8659 11.75 21.667 11.75C21.4681 11.75 21.2773 11.8291 21.1367 11.9697C20.996 12.1104 20.917 12.3011 20.917 12.5C20.917 14.6881 20.0478 16.7865 18.5006 18.3337C16.9535 19.8809 14.855 20.75 12.667 20.75C10.479 20.75 8.38055 19.8809 6.83338 18.3337C5.2862 16.7865 4.41701 14.6881 4.41701 12.5Z" fill="#0F172A"/>
<path d="M23.698 5.53097C23.7677 5.46124 23.823 5.37846 23.8607 5.28735C23.8985 5.19624 23.9179 5.09859 23.9179 4.99997C23.9179 4.90135 23.8985 4.8037 23.8607 4.7126C23.823 4.62149 23.7677 4.5387 23.698 4.46897C23.6282 4.39924 23.5454 4.34392 23.4543 4.30619C23.3632 4.26845 23.2656 4.24902 23.167 4.24902C23.0683 4.24902 22.9707 4.26845 22.8796 4.30619C22.7885 4.34392 22.7057 4.39924 22.636 4.46897L12.667 14.4395L8.69796 10.469C8.62823 10.3992 8.54545 10.3439 8.45434 10.3062C8.36323 10.2684 8.26558 10.249 8.16696 10.249C8.06835 10.249 7.9707 10.2684 7.87959 10.3062C7.78848 10.3439 7.7057 10.3992 7.63596 10.469C7.56623 10.5387 7.51092 10.6215 7.47318 10.7126C7.43544 10.8037 7.41602 10.9014 7.41602 11C7.41602 11.0986 7.43544 11.1962 7.47318 11.2873C7.51092 11.3785 7.56623 11.4612 7.63596 11.531L12.136 16.031C12.2056 16.1008 12.2884 16.1562 12.3795 16.194C12.4706 16.2318 12.5683 16.2513 12.667 16.2513C12.7656 16.2513 12.8633 16.2318 12.9544 16.194C13.0455 16.1562 13.1283 16.1008 13.198 16.031L23.698 5.53097Z" fill="#0F172A"/>
</svg>
