<svg width="40" height="40" viewBox="0 0 40 40" fill="none" xmlns="http://www.w3.org/2000/svg">
<path d="M15.7786 8.911C18.2614 10.743 21.7407 10.743 24.2235 8.911L30.0611 4.601L23.1848 0.813C21.2171 -0.271 18.785 -0.271 16.8152 0.813L9.94105 4.601L15.7786 8.911Z" fill="black"/>
<path d="M35.8522 7.793L32.4742 5.931L27.4811 11.999C25.5473 14.351 25.5473 17.647 27.4811 19.999L36.9162 31.465C38.2273 30.341 39 28.731 39 27.017V12.979C39 10.843 37.8008 8.867 35.85 7.793H35.8522Z" fill="black"/>
<path d="M24.2235 23.087C21.7407 21.255 18.2614 21.255 15.7786 23.087L3.75304 31.967C3.88183 32.051 4.01272 32.131 4.14995 32.205L16.8173 39.185C18.785 40.269 21.2171 40.269 23.1869 39.185L35.8543 32.205C35.9894 32.131 36.1224 32.049 36.2512 31.967L24.2256 23.087H24.2235Z" fill="black"/>
<path d="M3.08378 31.465L12.5189 19.999C14.4527 17.647 14.4527 14.351 12.5189 11.999L7.52581 5.931L4.14784 7.793C2.19918 8.867 1 10.843 1 12.979V27.017C1 28.731 1.77271 30.339 3.08378 31.465Z" fill="black"/>
</svg>
