<svg width="44" height="44" viewBox="0 0 44 44" fill="none" xmlns="http://www.w3.org/2000/svg">
<path d="M18.8895 13.6836C20.7189 15.0577 23.2826 15.0577 25.1121 13.6836L29.4134 10.4509L24.3467 7.60978C22.8968 6.79674 21.1047 6.79674 19.6533 7.60978L14.5881 10.4509L18.8895 13.6836Z" fill="url(#paint0_linear_820_1897)"/>
<path d="M33.6805 12.845L31.1915 11.4485L27.5124 15.9997C26.0875 17.7638 26.0875 20.2359 27.5124 22L34.4646 30.5999C35.4306 29.7569 36 28.5493 36 27.2638V16.7347C36 15.1327 35.1164 13.6506 33.679 12.845H33.6805Z" fill="url(#paint1_linear_820_1897)"/>
<path d="M25.1121 24.3161C23.2826 22.942 20.7189 22.942 18.8895 24.3161L10.0286 30.9764C10.1235 31.0395 10.2199 31.0995 10.321 31.155L19.6549 36.3902C21.1047 37.2033 22.8968 37.2033 24.3482 36.3902L33.6821 31.155C33.7817 31.0995 33.8797 31.038 33.9746 30.9764L25.1136 24.3161H25.1121Z" fill="url(#paint2_linear_820_1897)"/>
<path d="M9.53542 30.5999L16.4876 22C17.9126 20.2359 17.9126 17.7638 16.4876 15.9997L12.8085 11.4485L10.3195 12.845C8.8836 13.6506 8 15.1327 8 16.7347V27.2638C8 28.5493 8.56936 29.7554 9.53542 30.5999Z" fill="url(#paint3_linear_820_1897)"/>
<defs>
<linearGradient id="paint0_linear_820_1897" x1="8" y1="8.20008" x2="35.597" y2="36.1972" gradientUnits="userSpaceOnUse">
<stop stop-color="#00D2F6"/>
<stop offset="0.501932" stop-color="#A099FF"/>
<stop offset="1" stop-color="#C57CEB"/>
</linearGradient>
<linearGradient id="paint1_linear_820_1897" x1="8" y1="8.20008" x2="35.597" y2="36.1972" gradientUnits="userSpaceOnUse">
<stop stop-color="#00D2F6"/>
<stop offset="0.501932" stop-color="#A099FF"/>
<stop offset="1" stop-color="#C57CEB"/>
</linearGradient>
<linearGradient id="paint2_linear_820_1897" x1="8" y1="8.20008" x2="35.597" y2="36.1972" gradientUnits="userSpaceOnUse">
<stop stop-color="#00D2F6"/>
<stop offset="0.501932" stop-color="#A099FF"/>
<stop offset="1" stop-color="#C57CEB"/>
</linearGradient>
<linearGradient id="paint3_linear_820_1897" x1="8" y1="8.20008" x2="35.597" y2="36.1972" gradientUnits="userSpaceOnUse">
<stop stop-color="#00D2F6"/>
<stop offset="0.501932" stop-color="#A099FF"/>
<stop offset="1" stop-color="#C57CEB"/>
</linearGradient>
</defs>
</svg>
