<svg width="29" height="30" viewBox="0 0 29 30" fill="none" xmlns="http://www.w3.org/2000/svg">
<path d="M11.4248 17.5186C13.232 16.208 15.769 16.2081 17.5762 17.5186L17.6426 17.5664H17.6445L26.4453 23.9531L16.8135 29.1699C15.3844 29.9428 13.6178 29.9427 12.1904 29.1699L2.55664 23.9531L11.4248 17.5186ZM8.59863 9.16016C9.99682 10.8314 9.99682 13.1686 8.59863 14.8398L1.56348 23.2412C0.730743 22.4539 0.25 21.3889 0.25 20.2637V9.73438C0.250138 8.23032 1.10958 6.82924 2.52148 6.06445L4.91895 4.76562L8.59863 9.16016ZM26.4775 6.06348V6.06445C27.8909 6.82927 28.7499 8.23041 28.75 9.73438V20.2637C28.75 21.3893 28.2684 22.455 27.4355 23.2412L20.4014 14.8398C19.0468 13.2207 19.0043 10.9765 20.2744 9.31836L20.4014 9.16016L24.0801 4.76562L26.4775 6.06348ZM12.1885 0.830078C13.6176 0.0571523 15.3842 0.0572666 16.8115 0.830078L21.71 3.48145L17.5762 6.48145C15.769 7.79182 13.2319 7.79196 11.4248 6.48145L7.29102 3.48145L12.1885 0.830078Z" fill="white" stroke="#F1F5F9" stroke-width="0.5"/>
</svg>
