<svg width="140" height="18" viewBox="0 0 140 18" fill="none" xmlns="http://www.w3.org/2000/svg">
<path d="M9.30713 3.70815L3.51723 17.691H0L6.41218 2.24034C7.08857 0.618025 8.33312 0 10.2541 0C12.148 0 13.3925 0.618025 14.0419 2.24034L20.2105 17.691H16.6662L11.1198 3.70815C10.9575 3.29614 10.6599 3.11588 10.227 3.11588C9.79413 3.11588 9.49651 3.29614 9.30713 3.70815Z" fill="white"/>
<path d="M27.0858 0.309013H30.2784V11.6652C30.2784 13.3391 31.1442 14.6524 34.0121 14.6524H41.1006V17.691H33.8227C28.9797 17.691 27.0858 15.1674 27.0858 11.691V0.309013Z" fill="white"/>
<path d="M46.4712 0.309013H60.3507V3.34764H55.0207V17.691H51.8011V3.34764H46.4712V0.309013Z" fill="white"/>
<path d="M68.7187 0.309013H78.621C82.7335 0.309013 84.4921 2.72961 84.4921 5.51073C84.4921 7.67382 83.4099 9.99141 80.6231 10.7382L84.8709 17.691H81.3266L77.16 10.97H72.3982C72.1006 10.97 71.9383 11.0987 71.9383 11.4077V17.691H68.7457V10.8154C68.7457 8.85837 69.6115 8.06009 71.6136 8.06009H78.7292C80.542 8.06009 81.2725 6.87554 81.2725 5.63948C81.2725 4.40343 80.4879 3.34764 78.7292 3.34764H68.7187V0.309013Z" fill="white"/>
<path d="M100.677 0.309013H103.166C108.469 0.309013 111.418 3.19313 111.418 9.03863C111.418 14.8584 108.496 17.691 103.166 17.691H100.677C95.3473 17.691 92.4253 14.8584 92.4253 9.03863C92.4253 3.19313 95.3743 0.309013 100.677 0.309013ZM103.166 3.34764H100.677C97.16 3.34764 95.6179 5.04721 95.6179 9.03863C95.6179 13.0043 97.133 14.6524 100.677 14.6524H103.166C106.684 14.6524 108.199 13.0043 108.199 9.01288C108.199 5.04721 106.684 3.34764 103.166 3.34764Z" fill="white"/>
<path d="M123.767 3.93991V17.691H120.574V3.78541C120.574 1.51931 121.927 0 124.768 0C127.311 0 128.447 1.23605 129.205 3.21888L134.535 14.3176C134.751 14.7296 135.103 15.0386 135.698 15.0386C136.375 15.0386 136.78 14.6524 136.78 14.0601V0.309013H140V14.1888C140 16.4807 138.62 18 135.806 18C133.263 18 132.1 16.7639 131.342 14.7811L126.012 3.6824C125.769 3.16738 125.444 2.93562 124.876 2.93562C124.145 2.93562 123.767 3.32189 123.767 3.93991Z" fill="white"/>
</svg>
