<svg width="79" height="12" viewBox="0 0 79 12" fill="none" xmlns="http://www.w3.org/2000/svg">
<path d="M2.93447 10.8783H2.96802L2.98074 10.8473L6.16482 3.07994C6.21384 2.97254 6.27505 2.899 6.34865 2.85182C6.42245 2.80452 6.51292 2.78104 6.62486 2.78104C6.73693 2.78104 6.82712 2.80458 6.89878 2.85154C6.9702 2.89836 7.02764 2.97137 7.06933 3.07826L7.06938 3.07836L10.1199 10.8466L10.1324 10.8783H10.1664H12.1158H12.1893L12.1623 10.8099L8.76952 2.22626L8.7695 2.22622C8.58745 1.76678 8.32024 1.44596 7.96295 1.24097C7.60671 1.03658 7.16555 0.95 6.63974 0.95C6.10656 0.95 5.66175 1.03656 5.30185 1.24085C4.94091 1.44573 4.67001 1.76638 4.48048 2.22556L4.48045 2.22563L0.953751 10.8093L0.925401 10.8783H1H2.93447ZM15.8972 1.12167H15.8472V1.17167V7.49499C15.8472 8.46925 16.11 9.31715 16.7157 9.92131C17.3213 10.5255 18.2622 10.8783 19.6025 10.8783H23.6053H23.6553V10.8283V9.1402V9.0902H23.6053H19.7066C18.9247 9.0902 18.426 8.90927 18.1227 8.62281C17.82 8.3369 17.7031 7.93756 17.7031 7.48069V1.17167V1.12167H17.6531H15.8972ZM26.5591 1.12167H26.5091V1.17167V2.8598V2.9098H26.5591H29.4406V10.8283V10.8783H29.4906H31.2614H31.3114V10.8283V2.9098H34.1929H34.2429V2.8598V1.17167V1.12167H34.1929H26.5591ZM38.7953 1.12167H38.7453V1.17167V2.8598V2.9098H38.7953H44.3011C44.7743 2.9098 45.1101 3.05303 45.3275 3.27398C45.5453 3.49528 45.6499 3.80002 45.6499 4.13305C45.6499 4.46718 45.5521 4.79043 45.3372 5.02952C45.1231 5.26762 44.7879 5.42783 44.3011 5.42783H40.3875C39.8318 5.42783 39.4217 5.53944 39.1512 5.79943C38.8803 6.05986 38.7601 6.45895 38.7601 7.00858V10.8283V10.8783H38.8101H40.5661H40.6161V10.8283V7.33762C40.6161 7.26001 40.6361 7.21502 40.665 7.18845C40.6947 7.16111 40.7433 7.14442 40.819 7.14442H43.41L45.687 10.8545L45.7016 10.8783H45.7296H47.679H47.7676L47.7218 10.8024L45.4195 6.99603C46.9327 6.55552 47.5206 5.26231 47.5206 4.06152C47.5206 3.27872 47.2755 2.54258 46.7398 2.002C46.2038 1.46112 45.3826 1.12167 44.2416 1.12167H38.7953ZM69.0717 10.8783H69.1217V10.8283V3.18884C69.1217 3.02739 69.1704 2.90241 69.2604 2.81748C69.3507 2.73218 69.4894 2.6809 69.6818 2.6809C69.831 2.6809 69.9432 2.71155 70.0332 2.77246C70.1236 2.83364 70.1968 2.92878 70.2615 3.06698L70.2616 3.06725L73.1922 9.23135C73.402 9.7854 73.6701 10.2411 74.0663 10.558C74.464 10.876 74.9855 11.05 75.6935 11.05C76.4761 11.05 77.0667 10.8365 77.4618 10.4548C77.8571 10.0729 78.05 9.52923 78.05 8.88269V1.17167V1.12167H78H76.2292H76.1792V1.17167V8.81116C76.1792 8.96393 76.1277 9.08575 76.0371 9.16969C75.9461 9.25399 75.8105 9.30479 75.634 9.30479C75.4796 9.30479 75.3594 9.2645 75.2642 9.19913C75.1688 9.1336 75.0957 9.04094 75.0389 8.93202C75.0388 8.93173 75.0386 8.93144 75.0385 8.93115L72.1087 2.76865C71.899 2.21485 71.6347 1.75909 71.2421 1.44214C70.8481 1.12401 70.3303 0.95 69.6222 0.95C68.8323 0.95 68.2416 1.16348 67.8483 1.54344C67.4549 1.92357 67.2657 2.46373 67.2657 3.103V10.8283V10.8783H67.3158H69.0717ZM57.7415 1.12167H56.3725C54.9053 1.12167 53.7556 1.52487 52.9733 2.34423C52.1913 3.1632 51.7839 4.39 51.7839 6.02146C51.7839 7.6457 52.1876 8.86192 52.9679 9.67202C53.7485 10.4825 54.8981 10.8783 56.3725 10.8783H57.7415C59.2159 10.8783 60.3655 10.4825 61.1461 9.67202C61.9264 8.86192 62.3301 7.6457 62.3301 6.02146C62.3301 4.39 61.9226 3.1632 61.1407 2.34423C60.3583 1.52487 59.2087 1.12167 57.7415 1.12167ZM56.3725 2.9098H57.7415C58.7013 2.9098 59.3764 3.14398 59.8133 3.64033C60.2515 4.1382 60.4593 4.9101 60.4593 6.00715C60.4593 7.11146 60.2514 7.87959 59.8135 8.37199C59.3768 8.86297 58.7017 9.0902 57.7415 9.0902H56.3725C55.4047 9.0902 54.7259 8.86291 54.2874 8.37364C53.8476 7.88303 53.6398 7.11855 53.6398 6.02146C53.6398 4.91737 53.8513 4.14189 54.2932 3.64221C54.7338 3.14398 55.4127 2.9098 56.3725 2.9098Z" fill="black" stroke="black" stroke-width="0.1"/>
</svg>
